<svg xmlns="http://www.w3.org/2000/svg" viewBox="0 580 3000 780"><path d="M2855.405 796.217c7.236-6.436 7.515-9.426 16.889-15.729l1.626-1.083c-38.262 1.131-88.623 11.177-129.082 10.843l-.601-1.199c6.05-6.839 39.653-10.82 50.273-11.567-13.447-2.029-27.92-3.342-41.587-3.775-5.961-.188-.058 1.543-3.852 5.883l-4.321-.636c-52.002 5.498-109.16 5.275-161.69 9.691-5.596.47-13.682.806-17.769-3.07 3.384-3.609 23.086-5.967 32.051-9.791l1.553-.671c-3.018-5.869-4.937-5.045-10.767-6.68l-1.831-.887c3.765-1.489 13.389-4.62 16.011-5.883-4.468-1.688-6.211-2.38-9.58-5.782-4.365.884-6.343 1.827-10.195.148 5.142-6.964 43.696-9.91 48.208-15.186-12.173-9.518-180.234-2.627-207.334-3.512-26.016-.85-62.769.292-90.22-2.692-8.76-.952-17.549.995-26.69-.246a15.6 15.6 0 0 1-2.593-3.745l-7.061-.694-.146-.675 15.586-2.189-.674-1.348-9.228-1.911-.703-1.94c2.285-3.278 1.875-2.277 6.841-3.673l-3.12-1.815.161 2.031-1.553-2.536c-4.438-1.546-12.51-3.227-17.373-4.378l.102-4.676c13.989-.7 29.18-.982 42.847-3.596l-4.262-1.945.674-1.389 10.122-1.971c-1.48-4.78-4.702-7.178-8.335-10.802-8.833.173-32.695-6.865-43.403-8.7-21.621-3.706-42.891-6.964-64.702-9.354-67.192-7.36-132.173-1.653-199.292-2.999-27.012-.541-53.994-6.201-82.471-6.529 33.12-11.19 62.461-7.811 96.709-8.921 36.533-1.182 74.311-3.392 110.845-2.706 20.053.375 45.146 9.082 65.991 8.351 2.725-.094 7.105-2.355 9.99-2.618 18.061 1.669 34.731 5.631 53.247 3.272 1.538-.196 5.083 1.981 6.372 2.932 13.067 2.508 57.202 6.434 65.244 9.578l.645-.841c-.864-3.451-2.022-6.904-3.091-10.304-2.9.001-7.558-.494-10.576-.718-18.164-3.562-37.471-4.183-53.291-7.294l-1.523-.259c-13.55-2.403-38.789-10.705-55.664-11.409l-4.761 3.023c-9.36-.782-22.617-3.348-31.816-4.386 2.754-2.264 4.482-2.101 8.262-2.973-7.573-2.62-12.905-1.88-20.889-1.556l6.27 2.875.249 1.046c-6.797-.245-39.404-1.257-43.11-2.788 2.344-.879 6.943-2.217 8.364-3.824-5.332-.267-13.066-1.184-17.9.302l3.501 3.303c-4.307 2.582-113.892-.634-118.052-3.923 1.304-2.974 1.509-3.191 3.442-5.826-4.673-1.503-5.156-1.182-10.181-.305l-1.172 2.051 1.26 3.914c-11.895 2.522-30.498-1.322-43.11-.687-14.619.734-31.465 4.824-45.63.067-3.193-2.708-2.988-2.626-4.365-6.667-4.453-2.069-6.021-1.659-11.118-1.619l-.85 1.215 4.307 4.664-.674 2.049c-6.651 2.788-61.025 1.257-72.817 1.664-22.778.788-39.99-2.888-64.453 1.555-4.453-3.782-7.925-7.268-13.535-9.05-7.017.676-7.808 1.669-11.631 7.872-7.5-2.246-47.505-9.834-50.566-4.847-13.125 21.386-23.672 3.316-44.429 2.97-51.548-.857-105.146 7.486-156.68-.501-26.896 12.933-184.742 2.594-225.563 10.181-4.482.832-14.461.925-17.651-2.144-4.321-2.55-21.066 2.302-26.802 2.084-219.442 5.358-440.084 15.125-657.365 47.966-21.303 3.221-41.515 2.056-62.649 5.819-6.833-3.927-18.413-3.099-27.095-4.824-8.621 6.545-11.766 7.643-21.938 11.773a325 325 0 0 0-7.371-2.481c-3.757-1.225-7.897-2.144-11.159.333-15.376 11.675-28.163 3.713-41.395 5.782-15.614 2.443-60.838 13.331-71.735 23.465l.124 2.13c9.552 2.671 23.682-.678 32.388 1.398.224 4.071.105 2.872-2.117 7.02-3.961.968-9.636 1.223-12.031 3.35 7.343-.202 16.938-1.09 23.481 1.284 2.95 1.07 5.769-.588 8.731-1.881l2.678 1.166c-5.563 12.329-52.167 5.83-59.845 18.102 5.492 5.832 36.879 4.282 45.281 3.644l7.502 4.371c-.423 3.169.218 1.802-2.162 4.15-25.027 5.402-112.267 18.23-129.054 30.061l-.476 2.492c6.598 3.092 30.391-5.473 44.329-1.175-4.08 8.924-55.141 8.878-61.072 24.337 6.499 7.959 43.616-6.318 55.617-.722-1.759 10.203-43.082 21.232-47.007 27.268 9.576 4.787 41.981-6.16 46.642-.168l-.749 2.595c4.27 1.796 6.377 2.791 10.358 5.149l.051 1.987c-12.139 5.542-43.881 8.132-57.8 11.183-4.945 1.084-3.951 6.228-5.02 6.676-20.896 8.756-72.658 12.338-86.386 28.731l.182 2.495c12.631 3.555 35.159-8.409 44.625-6.4l-.954 2.128a78.3 78.3 0 0 0-39.498 24.507c14.483-.267 37.393-.132 45.923 14.48-.768 15.674-47.324 22.17-48.668 33.362 7.807 5.208 40.519 7.347 54.984 17.604-1.582 3.621-5.685 2.708-9.054 8.779.124 5.101 1.179 6.386 3.464 11.145-1.702 6.015-5.81 6.91-11.445 9.661l-.409 1.584c4.399 2.067 46.428-2.83 51.004-4.72 12.533-1.251 41.87-5.583 52.707-1.342 5.193 2.032 8.962 3.057 14.492 4.503-2.536 2.423-4.532 2.432-8.657 2.331a16.96 16.96 0 0 0-11.94 4.45c-12.756 12.087-40.972 13.325-45.158 20.671 1.73 2.141 4.206 2.27 7.033 2.939 3.445-2.997 4.001-4.437 8.448-5.907l2.301 3.081c10.619-1.178 37.059-5.573 45.574-1.688l1.258 2.759c-3.297 8.78-17.839 13.495-26.671 14.2l1.561 4.503 2.115.218c11.998 1.162 33.921-2.431 41.638 6.192-3.377 4.306-9.627 2.585-14.25 5.851-20.225 14.291-118.499 29.926-120.93 57.012 7.525 4.449 26.082-3.48 31.31-1.051 1.384 7.407.256 15.094-.428 22.649 8.313 1.886 15.656 2.766 20.774 9.91 2.908 19.868-29.539 21.345-32.436 36.053 4.837 5.729 22.34 4.1 30.129 4.078.731.763 5.946 6.148 6.081 6.352 4.77 7.173 1.926 40.778 15.019 37.976 20.773-4.444 43.759-12.345 64.913-17.325-3.954 2.73-7.333 5.058-11.489 7.534.278 3.325 1.575 4.627 3.454 7.385-4.607 5.926-10.308 4.497-13.655 10.928 1.011 4.95.069 3.121 4.022 6.695 14.004 3.517 27.744-11.667 39.431-13.623 14.902-2.495 34.232-1.729 49.671-2.98 19.201.684 49.601.299 67.241 2.956-1.014 15.182-8.629 9.294-11.691 18.789l.636 3.156c10.544 6.576 34.425-1.959 41.057 6.283-5.317 6.264-32.418 16.967-32.824 33.61 6.012 9.426 15.895 7.605 25.244 4.851 9.354-2.753 21.992.325 32.388.098l-1.283 1.029c-4.816 3.82-5.919 4.638-12.045 6.526-2.442 5.814-11.432 20.117-11.493 21.204 9.964 9.666 36.274-1.354 45.886 2.878-.33 7.642-2.102 6.348 1.028 11.469 7.914 5.044 15.464 4.545 24.499 4.189 1.821-2.383 3.086-3.939 4.673-6.519 10.825-4.356 32.799-10.591 41.891-.314-.083 8.028-7.565 7.023-.918 14.446 27.076 11.103 46.524-23.052 73.969-17.219 5.265 1.118 10.296 13.719 18.677 9.435 9.606-4.336 9.025-4.853 18.707-.605l2.965-1.442c2.355-8.09 2.117-7.069 11.408-6.96l2.174 1.5-.659-1.388.916 1.152-4.16 4.063c.302 3.848-.475 2.265 2.493 4.852 15.495.404 19.636-15.381 35.974-2.919 3.514-3.361 4.588-5.257 9.445-5.773 5.634 1.105 6.829 2.941 11.044 6.877 12.825 2.412 9.658-6.525 21.073-7.978 6.351.936 11.807.41 18.152-.555 12.472-1.894 4.969 1.818 11.631 6.207 4.047.066 7.802-1.288 10.869-4.037 5.792-5.187.946-2.5 1.365-7.231 18.464-5.153 15.784 4.076 35.698-6.368 14.158 4.642 81.357-12.364 102.19-5.306 2.114.716-.504 3.161 1.147 7.178 4.295.658 4.668.9 8.647-.46a157 157 0 0 1-1.876-6.323c.523-.516 2.183-2.152 2.984-2.21 162.803-11.562 325.903-22.709 489.155-28.72 5.684-.208 9.902 1.398 15.029 3.492 39.067-12.199 97.251-6.674 138.94-7.545l192.305-5.334c22.69-.511 85.122-6.751 103.55-3.167l5.156-4.219c4.322.92 20.405 2.295 20.537 2.368l-1.48 2.594c-4.746.67-6.328-.111-11.103-1.339l.41 1.971c23.599 11.517 30.147-3.474 53.189-4.743 30.454 6.66 32.915-1.615 55.137-.275-1.45 1.307-3.135 2.337-4.775 3.445l-.322 2.378c3.75 1.547 16.055-.791 21.108-1.423-3.97-.932-3.647-.24-6.226-2.637 8.701-7.06 212.959-5.178 236.382-3.186-5.918 1.439-11.865 2.548-17.183 5.514l-.513 1.895c9.463-2.478 22.559 4.157 28.242-2.976l-6.665-2.013-.82-1.994c5.596-2.941 86.382-1.077 100.137-1.14l6.387.208c24.756-.497 50.493 3.529 75.498 2.076 7.866-.457 19.365 1.273 26.909.504 7.456-.76 17.036-9.951 25.986-8.729 22.632.101 68.071 1.194 89.121-5.115 7.779.11 24.961-1.808 32.051-5.256-4.922-4.066-54.023-1.037-62.739-.034-20.244.278-55.723 1.449-74.121-1.238 18.926-4.407 56.118-7.291 77.183-9.542l115.796-12.969c-7.383-5.561-14.121-2.451-26.206-4.107l-2.388-1.218-4.278 1.975c-7.822-.442-9.053-3.263-12.803-4.002-8.364-1.645-34.116-3.635-41.016-.003-21.548 2.607-49.892 2.62-72.056 3.221-4.16-.585-9.228-.626-12.056-3.382 8.072-3.585 47.901-5.524 59.136-7.076 65.024-8.981 131.528-9.469 195.645-24.018 5.815-1.319 24.609-1.625 28.154-4.978-2.944-2.283-104.663 3.414-120.645 1.056l-1.509-.233c45.484-11.794 92.359-9.545 138.194-19.657 3.325-.733 15.454-.281 20.039-.508l.967-1.557c-6.24-5.575-72.686-6.431-87.129-8.336 21.987-6.918 41.484-6.802 64.248-8.987 7.017-.674 20.142-.875 26.221-3.246-3.486-1.097-13.579.642-21.343-1.66 4.043-4.699 21.665-.894 29.326-5.643l-1.582-2.088c-5.962-2.202-33.428-4.765-41.133-5.445-20.947-1.849-42.378-7.52-62.695-9.079-26.528-2.035-53.613-1.081-80.391-3.168 30.674-7.918 73.696-8.4 108.355-13.816-12.759-1.191-30.791-.289-42.217-2.113-24.595-3.926-40.561-6.145-65.859-7.287 8.569-1.947 18.735-2.577 26.865-4.872 14.619-4.122 27.392-7.526 42.422-10.058l2.52-3.646c-1.816-3.596-2.827.936-8.965-3.272-1.655-5.061-.791-2.331 1.392-7.949-.264.652-1.875-2.374-2.139-5.057 7.515-5.215 37.559-5.486 49.131-6.689 4.6-3.416 5.728-2.934 6.738-7.145-19.19-15.358-160.327-2.511-191.734-6.901 35.01-8.008 63.574-13.432 98.921-23.609l-1.055-7.658-72.612-.207c29.809-9.359 71.763-9.832 104.561-16.039-19.057-7.461-52.91-7.216-74.78-8.326 11.045-2.23 40.166-5.376 48.252-9.647 8.335 3.089 14.356-4.563 22.603-4.084 3.501-3.188 4.922-2.399 7.69-4.783-5.024-3.86-39.434-4.992-48.941-5.898 5.669-1.222 10.327-1.695 15.029-4.957l-1.113-1.791c-16.348-4.172-60.996-2.529-78.442-1.345-6.372 0-11.397.813-16.465-2.592 20.64-6.966 108.941-13.421 120.498-21.806l-.601-1.861c-23.657-10.839-128.745 8.563-165.908 6.975 35.625-8.134 74.868-10.82 110.947-18.596 17.944-3.865 37.222-4.598 54.712-11.199l.703-1.676-5.185-2.21c14.194-1.086 31.86-2.997 45.894-5.294 6.958-1.138 20.845-8.298 29.15-9.357 11.28-1.439 25.62-.653 36.284-3.801l.879-1.745c-7.295-3.527-23.716-1.505-26.675-5.652l4.248-3.908-.425-1.407c-12.407-2.932-43.462-1.779-57.876-3.216l-.63-1.578c13.96-10.883 62.227-7.716 74.077-25.827 1.362-2.073.967-2.416 3.237-4.05 2.051 1.385 2.974 1.864 5.2 2.969 1.831-2.185 1.113-.925 1.348-4.227l-2.109-1.191c-12.583-.334-13.14.985-22.5 2.768-12.817 2.443-66.24-7.17-79.599-9.368 14.985-4.372 27.29-10.037 43.213-12.308 21.27-3.032 42.158-9.073 62.622-15.38-19.307-2.374-35.625.372-54.873 1.418a482 482 0 0 1-48.823-.234c17.798-6.178 37.266-8.522 55.781-12.585 17.256-3.786 31.025-8.601 47.813-14.156a305 305 0 0 0-5.83-1.741c5.83-3.606 11.675-.215 13.652-1.972Z" style="fill:#c8511a"/><path d="M379.942 1258.32c10.02-9.54 51.283-9.672 63.864-3.562 1.622 2.699 2.121 3.518 3.377 6.518-17.64-2.657-48.04-2.271-67.241-2.955Z" style="fill:#d47232"/><path d="M2624.634 1252.958c6.899-3.632 32.651-1.643 41.016.003 3.75.739 4.98 3.559 12.803 4.002-12.349 1.238-48.223 2.878-61.157 3.374-19.863.762-100.342 10.289-115.884 7.143l-.351-1.351c9.521-1.594 37.617-2.9 49.116-3.964l2.402-5.987c22.163-.601 50.508-.614 72.056-3.221Z" style="fill:#edd0a0"/><path d="m2624.634 1252.958.498 1.483c-18.237 4.019-55.43 7.225-74.956 7.725l2.402-5.987c22.163-.601 50.508-.614 72.056-3.221" style="fill:#9e3a0e"/><path d="M1933.198 1301.971c8.247-.289 58.242-1.385 61.553.85-23.042 1.269-29.59 16.26-53.189 4.743l-.41-1.971c4.775 1.228 6.357 2.009 11.103 1.339l1.48-2.594c-.132-.073-16.216-1.448-20.537-2.368Z" style="fill:#b84a12"/><path d="M2592.466 1284.062c8.716-1.004 57.817-4.033 62.739.034-7.09 3.448-24.272 5.366-32.051 5.256l-.191-1.245c-7.134-5.461-19.805-3.432-30.498-4.044Z" style="fill:#9e3a0e"/><path d="M2632.646 981.027c-8.027 2.103-33.545 2.743-41.44.627 6.313-2.633 17.593-2.693 24.976-3.219 5.068 3.405 10.093 2.592 16.465 2.592Zm-346.01-269.508c-4.907-.687-10.137-.862-14.136-3.463 3.984-2.041 9.507-1.314 14.238-1.213z" style="fill:#f2e0b8"/><path d="M1926.431 654.937c4.526-2.428 8.628-.637 12.773 1.459a537 537 0 0 1-10.737.661z" style="fill:#d88040"/><path d="M2592.729 755.884c10.576-3.329 19.98-2.087 30.147 1.471l-.894.62c4.131 2.591 5.742 1.985 10.913 1.726 9.126-.777 26.147-2.557 34.38.517-16.377 2.973-53.115 10.197-68.379 14.898-3.018-5.869-4.937-5.045-10.767-6.68l-1.831-.886c3.765-1.489 13.389-4.62 16.011-5.883-4.468-1.688-6.211-2.38-9.58-5.782Z" style="fill:#cc5c22"/><path d="M2592.729 755.884c10.576-3.329 19.98-2.087 30.147 1.471l-.894.62c4.131 2.591 5.742 1.985 10.913 1.726-10.005 2.018-37.266 9.325-44.766 8.735l-1.831-.886c3.765-1.489 13.389-4.62 16.011-5.883-4.468-1.688-6.211-2.38-9.58-5.782Z" style="fill:#f2e0b8"/><path d="M2343.867 658.301c7.984.589 22.749 2.05 29.59 5.552l-.44 1.402-3.516 1.55c7.72 4.073 19.863.057 23.452 5.605-2.856-.042-5.933-.694-7.691.659 2.915 2.035 5.259 2.764 5.903 5.364-11.44-.464-33.94-5.444-44.853-8.988l.644-.841c-.864-3.451-2.021-6.904-3.091-10.304Z" style="fill:#d88040"/><path d="M2685.117 1256.205c5.127-3.397 70.21-7.536 77.329-5.089-7.28 5.4-40.591 8.179-51.123 9.196-7.383-5.561-14.121-2.451-26.206-4.107" style="fill:#9e3a0e"/><path d="M2260.474 636.928c11.338-.384 61.201 4.799 67.676 10.935-15.615-.123-47.446-2.158-63.325-5.394-2.856-.579-3.398-3.256-4.35-5.542Z" style="fill:#cc5c22"/><path d="M2327.783 687.141c13.433 1.187 31.538 6.186 45.029 9.551l-.557.974c-13.227.8-23.188-1.754-34.439.312l-1.699-.035c-1.48-4.78-4.702-7.178-8.335-10.802Z" style="fill:#d88040"/><path d="M2710.4 1038.104c6.885-.695 29.546-2.667 35.596-.579-4.336 3.797-28.784 8.99-34.541 8.236z" style="fill:#b84a12"/><path d="M264.573 1074.465c-6.094 1.939-24.895 5.8-28.608.034l2.108-2.687c4.666-1.981 19.942-3.21 24.939-1.849l1.562 4.503Z" style="fill:#c8511a"/><path d="m2333.291 657.583-1.699-2.356c3.443-6.389 10.401-4.935 17.109-4.685.938 4.569 1.421 2.648-.762 6.094-5.566.992-9.097.905-14.648.946Z" style="fill:#f2e0b8"/><path d="m2399.253 1300.407 6.387.208c.41 2.869 2.739 4.786 4.731 6.629l-1.919 1.408c-8.438.935-9.521.916-17.622-1.517l-.688-1.555 12.583-1.732.835-1.484-4.306-1.958Z" style="fill:#9e3a0e"/></svg>