<svg xmlns="http://www.w3.org/2000/svg" viewBox="513 480 450 448" xml:space="preserve">
	<g>
		<path style="fill:#2B2B2B;" d="M848.117,572.381c77.666,59.907,92.057,171.433,32.142,249.099s-171.433,92.049-249.091,32.142
			c-77.658-59.907-92.057-171.433-32.142-249.099C658.941,526.857,770.459,512.466,848.117,572.381z"/>
		<g>
			<path style="fill:none;" d="M848.117,572.381c77.666,59.907,92.057,171.433,32.142,249.099s-171.433,92.049-249.091,32.142
				c-77.658-59.907-92.057-171.433-32.142-249.099C658.941,526.857,770.459,512.466,848.117,572.381z"/>
			<g>
				<path style="fill:none;" d="M866.833,548.12c-21.519-16.599-46.435-29.046-72.783-36.143c-26.341-7.135-54.045-8.989-81.056-5.5
					s-53.337,12.304-77.003,25.896c-23.681,13.555-44.619,31.916-61.225,53.435c-16.599,21.519-29.046,46.435-36.143,72.783
					c-7.135,26.341-8.989,54.045-5.5,81.056c3.489,27.011,12.304,53.337,25.896,77.003c13.555,23.681,31.916,44.619,53.435,61.225
					c21.519,16.599,46.435,29.046,72.783,36.143c26.341,7.135,54.045,8.989,81.056,5.5s53.337-12.304,77.003-25.896
					c23.681-13.555,44.619-31.916,61.226-53.435c16.599-21.519,29.046-46.435,36.143-72.783c7.135-26.341,8.989-54.045,5.5-81.056
					c-3.488-27.011-12.304-53.337-25.896-77.003C906.721,585.664,888.351,564.726,866.833,548.12l-37.424,48.515
					c15.288,11.814,28.156,26.514,37.71,43.188c9.569,16.659,15.815,35.262,18.279,54.369s1.145,38.69-3.88,57.225
					c-5.003,18.557-13.72,36.038-25.512,51.348c-11.814,15.288-26.514,28.156-43.188,37.71
					c-16.659,9.569-35.262,15.815-54.369,18.279c-19.107,2.464-38.69,1.145-57.225-3.88c-18.557-5.003-36.038-13.72-51.348-25.512
					c-15.288-11.814-28.156-26.514-37.71-43.188c-9.569-16.659-15.815-35.262-18.279-54.369s-1.145-38.69,3.88-57.225
					c5.003-18.557,13.72-36.038,25.512-51.348c11.814-15.288,26.514-28.156,43.188-37.71c16.659-9.569,35.262-15.815,54.369-18.279
					s38.69-1.145,57.225,3.88c18.558,5.003,36.038,13.72,51.348,25.512L866.833,548.12z"/>
				<path style="fill-rule:evenodd;clip-rule:evenodd;fill:#2B2B2B;" d="M852.088,567.129c-0.083,0.573-0.769,0.234-1.138,0.377
					c-0.663-0.746-1.499-1.545-1.047-1.966C850.641,566.067,851.365,566.602,852.088,567.129z"/>
				<path style="fill-rule:evenodd;clip-rule:evenodd;fill:#2B2B2B;" d="M779.093,512.994c-3.504-0.55-3.428-1.575-6.457-2.185
					c-2.735-0.671-2.479,0.166-3.82,0.196c-16.29-3.232-32.692-3.067-46.164-0.414c0.309-0.55-1.1-0.354-2.275-0.256
					c0.03-1.1,1.123-1.974,2.78-2.727c8.295-1.025,16.35-1.545,24.352-1.424c1.997,0.023,4.001,0,5.997,0.06
					c1.997,0.083,4.001,0.173,6.005,0.264c1.002,0.038,2.012,0.075,3.021,0.113c1.01,0.053,2.012,0.143,3.029,0.211
					c2.019,0.143,4.061,0.279,6.118,0.392C769.932,509.671,780.141,510.613,779.093,512.994z"/>
				<path style="fill-rule:evenodd;clip-rule:evenodd;fill:#2B2B2B;" d="M614.02,548.436c-0.58,0.166-1.439,0.656-2.17,1.07
					c-0.731,0.414-1.371,0.686-1.582,0.316C612.031,548.481,613.334,548.089,614.02,548.436z"/>
				<path style="fill-rule:evenodd;clip-rule:evenodd;fill:#2B2B2B;" d="M641.197,601.878c-0.686,0.882-1.861,2.102-3.021,3.089
					c-0.595,0.482-1.145,0.942-1.635,1.273c-0.49,0.324-0.927,0.52-1.243,0.49c-0.791,1.379-1.537,2.735-2.524,4.167
					c-0.949,1.469-2.057,3.097-3.707,4.897c-0.625,0.023-1.281,0.083-1.831-0.151c0.58-1.319,1.432-3.059,2.456-4.89
					c0.264-0.452,0.527-0.919,0.799-1.386c0.294-0.445,0.603-0.889,0.919-1.326c0.633-0.874,1.288-1.733,1.966-2.532
					s1.356-1.537,2.042-2.162c0.716-0.595,1.432-1.085,2.117-1.432C638.914,601.23,640.172,601.11,641.197,601.878z"/>
				<path style="fill-rule:evenodd;clip-rule:evenodd;fill:#2B2B2B;" d="M543.233,684.246c0.656-3.014,0.301,2.63,0.723,0.105
					c0.467,0.595-0.437,4.099-0.972,3.526C542.992,686.807,543.768,684.2,543.233,684.246z"/>
				<path style="fill-rule:evenodd;clip-rule:evenodd;fill:#2B2B2B;" d="M546.051,768.594c0.55-0.369,1.085-0.03,1.575,1.846
					C547.076,770.817,546.541,770.486,546.051,768.594z"/>
				<path style="fill-rule:evenodd;clip-rule:evenodd;fill:#2B2B2B;" d="M617.282,862.407c2.735,3.315,3.338,1.756,4.671,4.37
					c1.688,0.949,3.413,2.08,5.169,3.308c0.866,0.625,1.755,1.258,2.652,1.899c0.912,0.618,1.831,1.243,2.75,1.869
					c1.838,1.258,3.654,2.554,5.455,3.737c1.838,1.13,3.639,2.185,5.35,3.104c0.851,0.452,1.703,0.859,2.554,1.243
					c0.859,0.384,1.748,0.678,2.63,1.01c1.763,0.64,3.541,1.266,5.342,2.049c14.338,6.126,30.575,12.123,45.938,15.318
					c2.223,0.399,4.46,0.799,6.691,1.19c1.115,0.181,2.215,0.43,3.33,0.565c1.108,0.158,2.208,0.309,3.3,0.46
					c1.093,0.166,2.17,0.324,3.232,0.49c1.062,0.173,2.11,0.354,3.149,0.467c2.072,0.271,4.069,0.573,5.96,0.927
					c-1.665,0.776-3.903,1.168-6.487,1.296c-2.584,0.098-5.485-0.234-8.499-0.625c-1.507-0.181-3.029-0.497-4.543-0.836
					c-1.514-0.332-3.029-0.678-4.513-1.025c-0.738-0.181-1.477-0.339-2.2-0.535c-0.716-0.203-1.424-0.407-2.117-0.603
					c-1.386-0.384-2.72-0.753-3.971-1.1c-1.017-0.143-1.944-0.234-2.788-0.264c-0.836-0.06-1.59-0.083-2.283-0.045
					c-12.967-4.008-24.11-7.595-34.395-12.003c-10.209-4.483-19.507-9.878-27.689-17.759c-1.733-0.859-3.195-1.899-4.694-2.969
					c-1.499-1.07-2.946-2.298-4.815-3.398c-0.422-0.482-0.851-0.972-0.799-1.273C615.09,862.369,616.529,862.46,617.282,862.407z"/>
				<path style="fill-rule:evenodd;clip-rule:evenodd;fill:#2B2B2B;" d="M704.253,895.717c2.291,0.083,7.015,0.784,6.6,1.914
					c2.66-0.339,5.387,0.995,8.823,1.153c9.396,2.26,20.795,3.014,32.775,2.479c11.995-0.52,24.532-2.396,36.61-4.822
					c1.19,0.866-1.228,1.424-2.343,2.095c-4.852,0.957-8.996,1.997-13.11,3.142c-2.064,0.497-4.144,0.919-6.291,1.288
					c-1.077,0.173-2.17,0.339-3.293,0.445c-1.13,0.075-2.29,0.113-3.488,0.106c-1.499,0.347-3.044,0.625-4.611,0.851
					c-1.567,0.234-3.172,0.279-4.792,0.347c-1.612,0.06-3.247,0.068-4.875,0.053c-1.635-0.053-3.27-0.196-4.897-0.324
					c-1.627-0.143-3.247-0.286-4.845-0.452c-1.597-0.234-3.172-0.46-4.732-0.686c-1.552-0.218-3.082-0.429-4.573-0.64
					c-1.492-0.256-2.953-0.482-4.37-0.678c-1.077-0.369-2.388-0.731-3.865-1.07c-1.477-0.362-3.104-0.784-4.837-1.138
					c-1.733-0.377-3.571-0.656-5.417-1.032c-1.846-0.384-3.722-0.731-5.56-1.017C702.52,897.292,703.447,896.146,704.253,895.717z"
					/>
				<path style="fill-rule:evenodd;clip-rule:evenodd;fill:#2B2B2B;" d="M770.579,895.521c-0.038-0.241-0.083-0.482-0.121-0.723
					c1.409-0.339,2.803-0.693,4.197-0.972c1.394-0.286,2.788-0.52,4.174-0.761c0.693-0.121,1.386-0.226,2.072-0.369
					c0.678-0.158,1.356-0.316,2.034-0.49c1.349-0.347,2.675-0.738,3.971-1.221c-0.686,1.228-3.933,2.223-5.455,3.383
					c-2.125,0.294-3.986,0.64-5.741,0.927C773.94,895.559,772.29,895.785,770.579,895.521z"/>
				<path style="fill-rule:evenodd;clip-rule:evenodd;fill:#2B2B2B;" d="M791.284,896.621c-0.806-0.987,5.689-2.532,7.203-2.705
					C796.423,895.348,793.808,895.37,791.284,896.621z"/>
				<path style="fill-rule:evenodd;clip-rule:evenodd;fill:#2B2B2B;" d="M903.036,813.756c-0.286-1.251,0.241-6.126,2.999-7.987
					c0.475-1.665,1.002-3.391,1.703-5.093c0.671-1.718,1.514-3.436,2.306-5.244c0.784-1.816,1.59-3.692,2.419-5.628
					c0.399-0.972,0.844-1.944,1.198-2.969c0.354-1.025,0.701-2.064,1.032-3.127c0.671,0.979,2.177-3.187,2.253-4.332
					c-0.874-0.023-0.392,2.735-1.228,1.763c0.881-2.728,1.756-5.425,2.554-7.911c0.399-1.236,0.784-2.426,1.092-3.541
					c0.264-1.13,0.467-2.193,0.573-3.164c0.43-0.075,0.219,0.746,0.505,0.866c0.301-0.023,0.55-1.145,0.814-1.921
					c0.392,0.362-1.341,5.93-1.198,3.255c-0.362,1.183-0.128,1.492-0.61,2.712c0.58-1.175,0.844-0.874,1.108-0.791
					c0.271,0.083,0.573-0.053,1.085-2.162c0.286,0.249-0.49,2.027-0.128,2.155c-0.61,1.093-1.228,0.957-1.831,1.605
					c-0.113,1.07-0.942,3.549-1.53,5.553c-0.151,0.505-0.271,0.979-0.384,1.386c-0.12,0.407-0.203,0.761-0.241,1.025
					c-0.075,0.527,0.053,0.716,0.52,0.332c-0.166,1.469-1.432,3.451-2.599,5.417c-1.123,1.997-2.351,3.895-2.208,5.447
					c-0.995,1.936-1.763,3.699-2.456,5.41c-0.753,1.673-1.409,3.308-2.087,5.018C907.414,805.295,905.741,808.904,903.036,813.756z"
					/>
				<path style="fill-rule:evenodd;clip-rule:evenodd;fill:#2B2B2B;" d="M920.697,763.87c0.558-1.296,1.484-2.517,1.552-1.01
					C921.797,764.315,921.255,764.134,920.697,763.87z"/>
				<path style="fill-rule:evenodd;clip-rule:evenodd;fill:#2B2B2B;" d="M921.255,759.041c0.384-2.125,1.055-1.612,1.499-3.18
					C923.153,756.991,921.782,759.523,921.255,759.041z"/>
				<path style="fill-rule:evenodd;clip-rule:evenodd;fill:#2B2B2B;" d="M925.029,749.984c-0.836-0.475,0.806-3.858,0.656-6.216
					C926.438,744.137,925.338,747.762,925.029,749.984z"/>
				<path style="fill-rule:evenodd;clip-rule:evenodd;fill:#2B2B2B;" d="M926.288,739.669c-0.234-1.221-0.776-1.838-0.407-4.227
					C926.325,736.241,926.476,737.628,926.288,739.669z"/>
				<path style="fill-rule:evenodd;clip-rule:evenodd;fill:#2B2B2B;" d="M931.698,663.917c-0.392-2.321-0.286-3.858,0.331-4.611
					C931.826,660.693,932.519,663.48,931.698,663.917z"/>
				<path style="fill-rule:evenodd;clip-rule:evenodd;fill:#2B2B2B;" d="M878.896,777.719c-0.663,1.032-1.258,2.117-1.966,3.142
					c-0.693,1.04-1.371,2.087-1.989,3.157c-0.633,1.062-1.16,2.162-1.695,3.24c-0.55,1.07-1.01,2.155-1.364,3.27
					c-0.746,1.07-1.492,2.185-2.306,3.293c-0.844,1.077-1.71,2.177-2.584,3.293c-0.43,0.558-0.867,1.115-1.303,1.68
					c-0.43,0.565-0.867,1.13-1.349,1.673c-0.934,1.093-1.869,2.2-2.78,3.323c-3.677,4.468-7.459,8.8-10.511,13.118
					c-0.392,0.271-0.761,0.565-1.123,0.874c-0.384,0.294-0.753,0.603-1.115,0.927c-0.723,0.648-1.416,1.356-2.102,2.08
					c-0.686,0.723-1.364,1.454-2.057,2.162c-0.716,0.686-1.477,1.296-2.253,1.861c-7.346,5.342-14.444,10.97-21.767,16.508
					c-7.331,5.5-14.896,10.887-22.769,15.611c-1.228,0.512-2.449,1.032-3.707,1.454c-1.236,0.625-2.456,1.296-3.677,1.989
					c-0.618,0.339-1.221,0.716-1.846,1.04c-0.633,0.324-1.266,0.648-1.906,0.972c-1.281,0.655-2.592,1.311-3.941,1.966
					c-1.349,0.656-2.795,1.153-4.272,1.695c-0.769,0.264-1.545,0.527-2.328,0.799c-0.392,0.128-0.791,0.256-1.19,0.384
					c-0.399,0.121-0.806,0.219-1.221,0.324c-1.635,0.414-3.308,0.814-5.003,1.19l-1.281,0.279l-1.296,0.211
					c-0.867,0.128-1.74,0.264-2.622,0.399c-1.756,0.241-3.519,0.55-5.304,0.64c-1.786,0.128-3.571,0.256-5.357,0.384
					c-1.786,0.083-3.571,0.06-5.334,0.09c-0.882,0.008-1.763,0.015-2.637,0.023c-0.874-0.023-1.748-0.075-2.615-0.105
					c-1.725-0.075-3.436-0.143-5.108-0.219c-0.053-0.384,0.09-0.836-1.138-0.776c-3.24-0.452-6.427-0.866-9.546-1.635
					c-1.56-0.362-3.119-0.671-4.671-1.062c-1.537-0.422-3.074-0.844-4.619-1.273c-0.768-0.203-1.537-0.407-2.306-0.618
					c-0.761-0.241-1.53-0.475-2.291-0.716c-1.529-0.467-3.074-0.919-4.626-1.334c-1.537-0.49-3.089-0.987-4.664-1.439
					c-0.784-0.226-1.582-0.445-2.381-0.648c-0.791-0.241-1.59-0.482-2.388-0.723c-1.567-0.46-3.142-0.708-4.694-1.04
					c-1.53-0.377-3.006-0.919-4.385-1.801c-0.866-0.09-1.786-0.219-2.735-0.377c-0.949-0.151-1.899-0.429-2.886-0.671
					c-0.979-0.256-1.989-0.527-2.991-0.791c-1.01-0.279-2.034-0.52-3.006-0.867c-1.695-0.957-3.677-1.959-5.817-2.931
					c-2.087-1.085-4.317-2.162-6.563-3.134c-2.208-1.047-4.385-2.095-6.457-2.916c-1.047-0.399-2.019-0.829-2.946-1.206
					c-0.927-0.369-1.808-0.686-2.622-0.934c-0.859-0.761-1.748-1.416-2.667-2.004c-0.889-0.633-1.793-1.213-2.72-1.771
					c-0.934-0.55-1.869-1.108-2.825-1.665c-0.475-0.286-0.949-0.58-1.432-0.874c-0.46-0.324-0.919-0.671-1.371-1.025
					c-2.524-1.989-5.221-3.993-7.745-6.321c-0.648-0.565-1.296-1.138-1.951-1.71c-0.648-0.58-1.334-1.13-1.951-1.771
					c-1.258-1.236-2.539-2.479-3.828-3.737c-5.033-5.146-10.013-10.729-14.391-16.81l-1.68-2.245
					c-0.542-0.761-1.047-1.552-1.567-2.328c-1.032-1.56-2.11-3.089-3.104-4.656c-1.899-3.195-3.895-6.314-5.553-9.561
					c-1.808-3.164-3.278-6.434-4.815-9.576c-0.746-1.582-1.371-3.195-2.057-4.754c-0.671-1.567-1.356-3.097-1.899-4.656
					c-0.791-0.987-1.258-1.936-1.703-2.946c-0.437-1.01-0.904-2.057-1.507-3.315c-0.256-1.884-0.791-4.099-1.454-6.487
					c-0.542-2.426-1.288-5.003-2.034-7.595c-0.633-2.615-1.424-5.206-2.072-7.633c-0.603-2.434-1.221-4.671-1.786-6.51
					c0.362-2.23,0.128-5.116-0.158-8.273c-0.083-1.582-0.166-3.232-0.249-4.897c-0.03-0.829-0.068-1.658-0.06-2.486
					c0.03-0.829,0.083-1.65,0.158-2.456c0.354-5.078,2.049-9.509,1.04-13.329c0.731-5.606,1.153-11.407,2.223-17.292
					c0.271-1.469,0.55-2.946,0.829-4.438c0.354-1.477,0.753-2.946,1.16-4.423c0.761-2.976,1.929-5.884,3.187-8.77
					c0.264-0.58,0.505-1.175,0.806-1.748l0.919-1.71c0.618-1.13,1.243-2.268,1.876-3.406c0.316-0.565,0.61-1.145,0.949-1.703
					c0.339-0.558,0.678-1.115,1.017-1.68c0.671-1.123,1.319-2.26,1.936-3.413c0.52-1.695,1.296-3.262,1.974-4.852
					c0.354-0.791,0.708-1.575,1.062-2.366l0.535-1.175l0.595-1.145c0.799-1.529,1.59-3.074,2.358-4.649
					c0.188-0.392,0.384-0.791,0.573-1.19c0.211-0.392,0.422-0.776,0.625-1.168c0.414-0.784,0.821-1.59,1.221-2.404
					c-0.203-0.219-0.64-0.264-0.339-0.859c0.64-0.859,1.19-1.944,1.793-3.127c0.633-1.16,1.258-2.449,1.914-3.767
					c0.339-0.655,0.678-1.318,1.017-1.989l0.535-0.987c0.196-0.316,0.407-0.633,0.61-0.942c0.836-1.236,1.733-2.411,2.735-3.413
					c0.512-1.017,0.934-2.087,1.469-3.082c0.512-1.01,1.025-2.019,1.545-3.044c0.527-1.032,1.062-2.072,1.605-3.142
					c0.55-1.07,1.228-2.08,1.899-3.165c1.371-2.132,2.871-4.438,4.905-6.676c0.995-1.138,2.064-2.313,3.232-3.526
					c1.221-1.16,2.562-2.321,4.008-3.541c0.339-0.731,0.799-1.499,1.349-2.298c0.558-0.791,1.258-1.552,2.012-2.366
					c0.753-0.806,1.582-1.627,2.456-2.464c0.437-0.414,0.889-0.836,1.341-1.258c0.482-0.392,0.964-0.791,1.454-1.19
					c0.987-0.791,1.989-1.59,2.984-2.388c1.002-0.799,1.989-1.605,3.014-2.313c2.019-1.454,3.903-2.916,5.515-4.257
					c2.878-1.417,6.517-3.534,10.254-4.98c3.647-1.612,7.331-2.615,9.787-2.743c1.861-0.784,3.76-1.296,5.719-2.012
					c0.979-0.347,1.989-0.716,3.036-1.138c1.062-0.392,2.193-0.784,3.383-1.258c1.522-0.264,2.343,0.09,4.167-0.46
					c0.656-0.633,1.733-1.183,3.134-1.725c2.185-0.226,4.619-0.708,7.263-1.1c1.311-0.226,2.667-0.49,4.039-0.784
					c1.371-0.286,2.795-0.49,4.212-0.776c1.417-0.294,2.848-0.588,4.272-0.882c1.432-0.249,2.863-0.512,4.265-0.799
					c2.803-0.633,5.553-1.04,8.085-1.59c0.625,0.407,1.59,0.226,2.584,0.098c0.995-0.105,2.012-0.211,2.697,0.219
					c8.529-1.145,17.631-2.102,26.785-1.59c9.132,0.467,18.301,2.275,26.416,6.05c0.979,1.838,2.509,3.436,3.752,5.026
					c1.221,1.658,2.177,3.255,2.095,4.943c1.145,0.964,3.413,1.763,3.684,2.841c-0.512,0.618,0.392,1.183,0.497,1.771
					c1.01,0.753,2.268,1.635,3.669,2.532c0.354,0.219,0.708,0.445,1.077,0.678c0.362,0.241,0.723,0.49,1.093,0.738
					c0.738,0.49,1.507,0.972,2.283,1.424s1.567,0.889,2.358,1.288c0.799,0.384,1.552,0.836,2.321,1.183
					c1.53,0.723,3.029,1.243,4.43,1.454c0.874-0.234,1.763-0.384,2.584-0.588c0.821-0.203,1.575-0.46,2.147-0.829
					c1.138-0.738,1.552-1.921,0.256-4.151c1.514-2.034,1.447-5.267,2.562-7.203c1.145-1.974,3.541-2.63,10.239,0.663
					c3.112-0.633,6.103-0.362,6.804-3.669c-1.213-1.627-1.906-3.232-2.901-4.86c-1.002-1.612-2.253-3.338-4.483-5.365
					c1.288,0.219,0.369-0.49,0.595-1.055c-1.138-0.821-2.712-1.582-3.948-2.313c-1.236-0.731-2.14-1.424-2.012-1.982
					c6.111,3.451,7.768,2.396,12.598,4.815c1.597,0.249,2.758,0.249,3.722,0.03c0.964-0.211,1.718-0.618,2.426-1.032
					c1.417-0.836,2.645-1.74,5.086-1.296c0.678,0.625,1.04,1.025,1.477,1.386c0.437,0.347,0.934,0.671,1.854,1.175
					c1.906-0.625,0.023-2.599,3.541-1.326c-0.467-1.537-1.989-2.577-4.106-4.069c-0.158-1.658-1.673-3.684-3.76-5.862
					c-1.025-1.115-2.268-2.14-3.519-3.225c-1.266-1.077-2.554-2.17-3.79-3.217c-0.512-0.301-1.01-0.603-1.514-0.897
					c-0.505-0.279-1.01-0.557-1.507-0.829c-0.987-0.558-1.959-1.108-2.916-1.643c-0.949-0.55-1.876-1.092-2.788-1.627
					c-0.912-0.542-1.801-1.085-2.705-1.567c-1.793-0.995-3.534-1.974-5.229-2.954c-0.851-0.49-1.695-0.972-2.532-1.447
					c-0.851-0.445-1.695-0.882-2.539-1.319c-1.688-0.874-3.36-1.733-5.041-2.577c-0.836-0.437-1.688-0.821-2.554-1.183
					c-0.867-0.362-1.733-0.731-2.607-1.1c-1.756-0.716-3.534-1.424-5.372-2.064c-1.861-0.58-3.775-1.123-5.764-1.62
					c-0.015-0.791-1.484-1.575-3.36-2.177c-1.899-0.527-4.189-0.874-5.817-0.934c-1.198-0.904-0.075-2.004-2.434-2.818
					c-2.162,0.181,0.445,1.145,0.369,1.831c-1.386-0.09-3.677-0.264-5.839-0.588s-4.219-0.776-5.184-1.288
					c-2.569,0.234-6.186-0.06-9.953-0.384c-1.891-0.098-3.82-0.166-5.674-0.188c-1.854,0-3.624-0.008-5.206,0.241
					c-1.16-0.55-2.622-1.01-4.438-1.371c-1.823-0.339-4.001-0.671-6.6-0.656c-0.098,0.859-1.221,1.394-2.208,1.966
					c-1.756,0.188-3.413,0.316-4.988,0.392c-1.575,0.128-3.074,0.226-4.521,0.279c-2.901,0.113-5.598,0.053-8.28,0.196
					c-1.341,0.06-2.682,0.113-4.046,0.173c-1.364,0.068-2.75,0.151-4.159,0.369c-1.416,0.196-2.878,0.437-4.393,0.738
					c-0.761,0.151-1.53,0.316-2.321,0.505c-0.392,0.098-0.791,0.196-1.198,0.294c-0.399,0.121-0.806,0.249-1.221,0.377
					c-1.891,0.015-4.257,0.294-6.879,0.731c-1.319,0.196-2.675,0.527-4.084,0.867c-1.401,0.354-2.84,0.723-4.302,1.092
					c-0.957,0.06-1.944,0.121-2.946,0.241c-1.002,0.136-2.019,0.286-3.067,0.46c-2.087,0.347-4.265,0.753-6.495,1.258
					c-4.408,1.175-9.102,2.486-13.698,4.408c-4.664,1.748-9.2,4.084-13.638,6.442c-4.325,2.569-8.559,5.154-12.274,8.092
					c-1.439,0.128-2.923,0.588-4.43,1.251c-1.492,0.678-2.961,1.635-4.453,2.622c-1.484,1.002-2.969,2.072-4.438,3.097
					c-1.424,1.085-2.841,2.125-4.25,2.984c-2.23,1.364-4.528,2.652-6.721,4.099c-2.208,1.417-4.46,2.818-6.623,4.347
					c-2.117,1.582-4.189,3.232-6.171,5.01c-0.49,0.445-0.995,0.889-1.462,1.364c-0.46,0.482-0.919,0.972-1.364,1.469
					c-0.897,0.995-1.756,2.034-2.584,3.104c-0.874,0.882,0.181,0.768-0.542,1.575c-0.708,0.678-1.454,1.379-2.17,2.147
					c-0.708,0.776-1.424,1.582-2.155,2.419c-1.454,1.665-2.946,3.421-4.438,5.206c-1.417,1.853-2.848,3.73-4.265,5.583
					c-0.708,0.919-1.417,1.838-2.117,2.743c-0.671,0.927-1.334,1.846-1.982,2.743c-0.934,1.273-1.906,2.501-2.886,3.714
					l-1.484,1.808l-1.401,1.869c-0.927,1.251-1.846,2.509-2.72,3.797c-0.437,0.648-0.866,1.304-1.281,1.966l-0.61,1.01l-0.542,1.055
					c-1.643,3.315-2.976,6.269-3.843,9.026c-0.806,2.795-1.251,5.342-1.296,7.723c-0.332,0.618-0.64,1.266-0.904,1.944
					c-0.241,0.686-0.46,1.394-0.663,2.117c-0.407,1.439-0.746,2.931-1.123,4.408c-0.806,2.923-1.507,5.862-3.187,8.25
					c-0.143,1.123,0.618,1.168-0.173,3.067c-0.467,1.356-0.836,1.236-1.228,1.884c0.874,0.249,0.919-0.535,1.364,0.497
					c1.002-3.971,1.861-5.719,2.343-9.252c0.219-0.445,0.43-0.738,0.648-1.093c0.234-0.354,0.467-0.776,0.738-1.492
					c0.972-3.903,1.959-8.228,3.541-12.673c0.384-1.123,0.784-2.26,1.183-3.421c0.211-0.58,0.422-1.16,0.633-1.748
					c0.241-0.573,0.49-1.153,0.731-1.733c0.995-2.321,2.08-4.709,3.262-7.135c1.198-2.298,2.584-4.521,3.971-6.698
					c0.708-1.077,1.371-2.177,2.125-3.195c0.746-1.017,1.477-2.027,2.2-3.014c1.454-1.959,2.765-3.903,4.038-5.674
					c1.281-1.771,2.381-3.473,3.232-5.108c1.153-1.266,1.371-0.151,2.343-0.957c0.437-0.897,0.995-1.65,1.612-2.358
					c0.61-0.708,1.281-1.371,1.974-2.034c1.394-1.326,2.878-2.69,4.34-4.476c2.125-2.449,3.24-5.229,5.824-7.911
					c2.72-2.607,5.169-4.491,7.723-6.45c2.63-1.869,5.402-3.782,8.785-6.495c1.929-0.429,4.445-2.11,6.66-3.564
					c1.1-0.731,2.14-1.394,3.006-1.771c0.859-0.392,1.514-0.55,1.853-0.294c-0.445,0.814-1.688,1.303-2.938,1.914
					c-1.236,0.625-2.524,1.311-3.089,2.351c1.326-0.678,2.78-1.529,3.534-1.401c-2.562,2.901-3.895,5.402-5.44,7.956
					c-1.462,2.66-3.149,5.342-6.352,8.695c-1.462,1.258-2.795,2.456-4.008,3.609c-0.61,0.58-1.19,1.145-1.74,1.695
					c-0.558,0.55-1.077,1.1-1.552,1.665c-1.914,2.223-3.451,4.265-4.732,6.178c-9.041,8.386-18.588,19.921-26.039,32.76
					c-3.707,6.419-7.082,13.027-9.735,19.59c-0.656,1.643-1.311,3.262-1.951,4.86c-0.625,1.605-1.123,3.232-1.665,4.807
					c-0.52,1.582-1.025,3.134-1.522,4.656c-0.445,1.537-0.829,3.059-1.221,4.536c-0.648,1.364-1.243,2.682-1.801,4.008
					c-0.55,1.326-0.964,2.69-1.401,4.091c-0.43,1.401-0.829,2.856-1.213,4.4c-0.09,0.384-0.188,0.784-0.286,1.183
					c-0.075,0.407-0.151,0.814-0.226,1.236c-0.143,0.836-0.286,1.703-0.445,2.607c-0.633,0.934-1.198,2.08-1.71,3.383
					c-0.249,0.655-0.512,1.341-0.708,2.072c-0.196,0.731-0.377,1.499-0.55,2.291c-0.671,3.164-1.236,6.728-1.454,10.315
					c-0.136,1.786-0.279,3.564-0.407,5.297c-0.083,1.733-0.136,3.413-0.241,4.988s-0.241,3.051-0.43,4.378
					c-0.151,1.326-0.331,2.509-0.618,3.496c1.19,1.876,1.243,5.681,1.206,9.516c-0.06,1.914-0.234,3.843-0.467,5.523
					c-0.173,1.68-0.399,3.127-0.663,4.084c0.882,0.671,1.236,2.419,1.334,4.445c0.113,2.027,0.105,4.325,0,6.103
					c-0.354,0.053-1.077-2.893-0.723,0.075c0.075,1.394,0.475,1.364,0.708,2.057c-0.196,0.671-0.354,1.432-0.535,2.117
					c-0.158,0.678-0.369,1.281-0.708,1.627c0.226,2.645,0.874,2.961,1.108,5.606c-0.588-0.625-1.213-1.047-1.635-2.63
					c-0.904-3.767-0.234-4.408-0.166-6.487c-0.595,0.158-0.61,1.454-1.04-0.595c1.401-1.123-0.851-4.551,0.301-6.51
					c0.173,1.319,0.407,2.358,0.776,2.795c-0.558-2.75-0.972-6.073-1.364-8.499c0.053,0.761-0.008,1.823-0.203,0.731
					c-0.671,12.696,0.806,24.706,3.677,36.264c2.886,11.573,7.158,22.732,12.59,34.041c0.038,1.477,1.025,3.956,1.891,6.299
					c0.445,0.799,0.919,1.545,1.371,2.26c0.452,0.716,0.889,1.401,1.303,2.057c0.836,1.303,1.612,2.464,2.358,3.451
					c0.377,0.49,0.738,0.942,1.115,1.334c0.384,0.384,0.768,0.723,1.153,1.01c0.761,0.573,1.529,0.919,2.328,1.017
					c-0.565-0.919-1.108-1.816-1.65-2.697c-0.542-0.882-1.025-1.793-1.537-2.69c-1.025-1.801-2.057-3.617-3.18-5.576
					c-2.057-4.008-4.46-8.597-6.969-15.054c-0.535-2.878-0.414-5.282,0.693-6.344c1.093,2.509,2.253,5.033,3.3,7.625
					c0.512,1.303,1.032,2.607,1.545,3.91c0.55,1.288,1.108,2.577,1.658,3.865c0.55,1.288,1.1,2.577,1.65,3.85
					c0.558,1.273,1.213,2.494,1.823,3.714c0.625,1.221,1.266,2.419,1.921,3.586c0.331,0.58,0.655,1.168,1.01,1.725
					c0.362,0.558,0.731,1.1,1.108,1.635c0.859,1.228,1.469,1.575,2.223,2.773c0.565,0.927,1.1,1.793,1.605,2.615
					c0.482,0.829,1.01,1.575,1.462,2.306c0.927,1.454,1.725,2.78,2.464,4.038c1.432,2.554,2.863,4.694,4.483,7.18
					c0.806,1.183,1.59,2.411,2.479,3.571c0.889,1.153,1.801,2.313,2.72,3.466c0.927,1.145,1.861,2.298,2.795,3.458
					c0.995,1.1,1.997,2.208,2.991,3.308c1.002,1.1,2.004,2.2,3.006,3.3c1.002,1.093,2.08,2.11,3.112,3.164
					c2.087,2.08,4.069,4.234,6.171,6.186c1.816,1.74,2.908,4.317,5.636,5.349c-2.162-2.275-4.408-4.671-6.623-6.781
					c-0.279-0.264-0.55-0.527-0.821-0.784c-0.264-0.271-0.52-0.535-0.776-0.799c-0.512-0.52-1.025-1.025-1.522-1.499
					c-0.995-0.957-1.944-1.808-2.825-2.532c-0.497-0.64-1.055-1.334-1.65-2.057c-0.565-0.753-1.175-1.545-1.823-2.358
					c-1.281-1.627-2.697-3.36-4.151-5.108c-1.386-1.801-2.803-3.639-4.159-5.402c-0.678-0.889-1.379-1.725-1.997-2.584
					s-1.213-1.688-1.786-2.471c-0.942-1.695-1.884-3.308-2.84-4.86c-0.904-1.582-1.786-3.134-2.697-4.641
					c-0.889-1.514-1.869-2.954-2.735-4.476c-0.889-1.499-1.778-3.006-2.675-4.536c-0.46-0.761-0.919-1.529-1.379-2.298
					c-0.46-0.776-0.866-1.59-1.311-2.404c-0.866-1.627-1.756-3.3-2.675-5.033c-0.475-0.859-0.882-1.771-1.304-2.697
					c-0.414-0.927-0.836-1.876-1.273-2.848c-0.844-1.944-1.755-3.956-2.494-6.163c0.829-1.379-0.249-3.33-1.258-6.231
					c1.401-0.316,1.16-2.667,0.173-5.922c-0.979-1.673-0.535,1.454-1.379-0.241c-0.249-2.004-0.422-3.888,0.497-4.498
					c0.542,1.725,1.371,3.639,1.341,4.581c0.889-0.979-0.64-4.837,0.738-5.259c1.213,3.119,2.584,6.08,3.933,8.966
					c1.499,2.833,2.938,5.613,4.445,8.341c0.791,1.349,1.567,2.697,2.328,4.054c0.776,1.349,1.462,2.743,2.283,4.084
					c0.791,1.349,1.56,2.727,2.298,4.129c0.369,0.701,0.738,1.409,1.093,2.132c0.362,0.716,0.768,1.417,1.138,2.14
					c0.309,1.816-0.09,3.059,0.52,5.139c1.582,0.671-0.399-3.775,0.241-4.807c1.334,1.462,2.72,3.504,4.182,5.41
					c1.507,1.884,2.991,3.692,4.31,4.815c0.143,0.836-0.618,1.115,0.701,2.72c1.725,2.562,3.36,4.897,5.041,6.969
					c1.733,2.034,3.421,3.895,5.071,5.658c1.688,1.733,3.436,3.293,5.123,4.897c1.658,1.627,3.451,3.127,5.236,4.739
					c1.364,1.206,2.637,2.479,3.986,3.647c1.349,1.168,2.675,2.336,3.986,3.519l1.959,1.778c0.656,0.588,1.356,1.13,2.027,1.695
					c1.356,1.13,2.712,2.26,4.084,3.406c1.341,1.175,2.826,2.193,4.272,3.293c1.462,1.077,2.938,2.177,4.468,3.247
					c1.575,1.01,3.18,2.027,4.83,3.036c0.829,0.497,1.665,1.002,2.517,1.514c0.859,0.49,1.763,0.927,2.66,1.394
					c0.806,0.686-0.738,0.942,1.198,1.831c1.025,0.656,2.117,1.326,3.255,2.004c1.138,0.671,2.366,1.273,3.579,1.921
					c2.441,1.273,4.897,2.652,7.308,3.828c1.19,0.61,2.343,1.236,3.428,1.869c1.085,0.633,2.095,1.288,3.051,1.861
					c1.899,1.198,3.421,2.456,4.355,3.782c1.982,0.701,3.172,1.266,4.174,1.854c0.995,0.588,1.808,1.19,3.059,1.778
					c1.251,0.203,2.441,0.452,3.971,0.799c0.565,0.648,1.982,1.138,3.662,1.605c1.68,0.452,3.602,0.964,5.252,1.409
					c1.823,0.542,3.413,1.266,5.018,2.012c0.806,0.369,1.605,0.769,2.456,1.1c0.851,0.324,1.74,0.625,2.697,0.889
					c6.653,1.906,9.637,1.349,12.801,1.288c1.959-0.008,4.393-0.09,6.638-0.211c2.253-0.143,4.325-0.377,5.598-1.145
					c-1.115-0.414-2.306-0.889-3.24-1.432c-2.185,0.264-4.566,0.761-7.165,1.085c-2.584,0.218-5.387,0.279-8.363-0.166
					c-1.869-0.339-3.315-1.025-4.784-1.605c-1.469-0.603-2.961-1.062-4.92-1.213l0.151-0.708c-2.509-0.467-4.837-1.017-7.015-1.612
					c-2.17-0.633-4.159-1.432-6.058-2.2c-0.949-0.392-1.869-0.791-2.765-1.19c-0.889-0.43-1.748-0.897-2.599-1.349
					c-1.695-0.912-3.33-1.831-4.958-2.75c-6.389-3.956-12.477-7.843-21.134-12.115c-0.972-0.844-1.951-1.605-2.825-2.494
					c-0.889-0.866-1.74-1.725-2.554-2.577c-1.612-1.71-3.119-3.315-4.295-5.056c1.334,0.995,2.554,1.643,3.669,2.185
					c1.115,0.55,2.132,0.972,3.142,1.394c1.017,0.407,2.004,0.859,3.112,1.326c1.115,0.467,2.321,1.032,3.707,1.808
					c3.925,1.153,8.122,2.426,12.364,4.076c2.162,0.723,4.347,1.522,6.547,2.373c1.093,0.452,2.238,0.776,3.36,1.183
					c1.13,0.392,2.26,0.791,3.398,1.19c9.109,3.119,18.746,5.771,27.742,6.54c3.27,0.723,6.457,1.379,9.629,1.582
					c1.582,0.136,3.149,0.249,4.709,0.339c1.56,0.053,3.119,0.015,4.671,0.008c1.552-0.03,3.097-0.008,4.649-0.105
					c1.552-0.106,3.104-0.203,4.671-0.309c0.784-0.045,1.567-0.098,2.351-0.143c0.791-0.045,1.575-0.158,2.373-0.226
					c1.59-0.158,3.195-0.294,4.83-0.414c0.987,0.671,3.029,0.701,5.372,0.603c1.175-0.053,2.419-0.143,3.647-0.219
					c1.228-0.083,2.434-0.256,3.534-0.309c1.243-0.347-0.008-1.243,2.321-1.341c1.16-0.166,2.2-0.211,3.134-0.271
					c0.934-0.06,1.771-0.06,2.547-0.015c1.545,0.098,2.81,0.377,4.016,0.693c0.603,0.151,1.19,0.331,1.778,0.467
					c0.588,0.128,1.183,0.249,1.816,0.332c1.258,0.173,2.66,0.226,4.393,0c0.618-0.083,1.447-0.354,2.306-0.671
					c0.859-0.347,1.756-0.723,2.554-0.957c1.153-0.332,2.871-0.708,4.536-1.077c1.665-0.369,3.232-0.874,4.136-1.228
					c1.62-0.671,3.187-1.386,4.724-2.162c1.507-0.836,2.999-1.71,4.498-2.577c0.753-0.43,1.507-0.859,2.268-1.288
					c0.769-0.422,1.507-0.912,2.283-1.356c1.545-0.904,3.142-1.763,4.86-2.562c9.697-4.747,20.306-10.978,29.769-18.158
					c2.117-1.228,4.362-2.833,6.698-4.641c2.245-1.914,4.573-4.054,6.924-6.284c1.13-1.16,2.283-2.336,3.436-3.511
					c1.145-1.183,2.366-2.306,3.458-3.541c1.123-1.206,2.26-2.388,3.406-3.534c0.573-0.573,1.153-1.13,1.74-1.68
					c0.557-0.573,1.108-1.138,1.673-1.688c0.618-1.07,1.334-2.177,2.125-3.308c0.791-1.13,1.688-2.268,2.517-3.504
					c0.859-1.221,1.756-2.456,2.675-3.715c0.919-1.251,1.876-2.501,2.705-3.828c0.859-1.311,1.71-2.622,2.524-3.918
					c0.399-0.656,0.791-1.303,1.183-1.936c0.362-0.656,0.686-1.319,1.01-1.966c0.64-1.303,1.213-2.577,1.695-3.812
					c0.475-1.236,0.889-2.419,1.07-3.594c0.701-1.507,1.062,0.008,1.816-1.906c0.369-1.356,0.851-2.69,1.364-4.001
					c0.52-1.303,0.949-2.645,1.401-3.903c0.844-2.547,1.597-4.867,1.273-6.894c0.467-1.379,0.927-2.208,1.386-2.81
					c0.241-1.025,0.482-2.042,0.723-3.074c0.241-1.025,0.392-2.087,0.588-3.134c0.354-2.102,0.768-4.189,1.077-6.329
					c0.279-2.132,0.565-4.287,0.851-6.48c0.173-1.077,0.249-2.193,0.362-3.3c0.113-1.1,0.234-2.215,0.347-3.338
					c0.829-8.868,1.71-18.324,2.682-28.812c0.693-1.665,1.364-3.3,2.034-4.928c0.686-1.643,1.236-3.285,1.861-4.965
					c0.301-0.844,0.603-1.695,0.904-2.547c0.309-0.859,0.595-1.733,0.829-2.614c0.497-1.771,0.979-3.594,1.432-5.508
					c0.686-1.597,1.258-3.164,1.838-4.792c0.58-1.627,1.13-3.323,1.612-5.176c0.452-1.846,0.738-3.828,0.949-6.05
					c0.098-1.115,0.181-2.29,0.188-3.526c-0.023-1.236-0.09-2.532-0.203-3.91c-0.482-1.416-0.987-2.765-1.507-4.046
					c-0.558-1.281-1.183-2.479-1.793-3.632c-1.251-2.29-2.449-4.37-3.85-6.186c-1.356-1.823-2.69-3.451-3.963-4.92
					c-1.296-1.454-2.607-2.727-3.752-3.903c-0.904-1.906-1.816-3.127-2.765-3.903c-0.934-0.784-1.786-1.168-2.411-1.492
					c-0.603-1.047-1.183-2.08-1.763-3.082c-0.286-0.505-0.565-1.002-0.844-1.499c-0.301-0.482-0.603-0.964-0.904-1.439
					c-1.198-1.906-2.336-3.767-3.473-5.636c-1.228-1.816-2.426-3.647-3.632-5.545c-0.309-0.467-0.595-0.957-0.919-1.424
					s-0.656-0.942-0.987-1.417c-0.656-0.957-1.326-1.936-2.004-2.938c-1.311-2.049-2.645-3.933-3.805-5.824
					c-0.58-0.949-1.13-1.884-1.65-2.825s-1.1-1.816-1.612-2.727c-1.047-1.793-1.982-3.609-2.938-5.387
					c-1.002-1.733-1.967-3.481-2.931-5.229c-3.978-6.856-8.303-13.788-15.928-19.876c-0.467-0.746-0.482-1.326-1.394-2.238
					c-0.949,0.203-2.26-1.228-3.639-2.584c-1.379-1.356-2.825-2.622-3.963-2.027c0.784,1.658,2.381,3.805,4.355,5.967
					c1.01,1.055,2.019,2.223,3.097,3.315c1.07,1.093,2.193,2.132,3.3,3.067c0.271,1.138,1.1,2.2,2.155,3.285
					c1.047,1.077,2.306,2.185,3.323,3.458c0.656,0.784,1.153,1.665,1.627,2.532c0.475,0.866,0.897,1.74,1.303,2.592
					c0.806,1.718,1.597,3.315,2.434,4.807c0.505,0.844,1.522,1.394,1.718,1.718c0.723,1.153,1.236,2.306,1.838,3.526
					c0.565,1.243,1.175,2.577,2.193,4.023c2.313,3.202,3.714,5.365,5.221,7.339c0.377,0.49,0.753,0.979,1.138,1.477
					c0.196,0.249,0.392,0.497,0.595,0.753c0.188,0.264,0.377,0.535,0.573,0.806c0.784,1.108,1.643,2.321,2.667,3.767
					c0.512,0.738,1.047,1.469,1.545,2.223c0.482,0.761,0.957,1.522,1.432,2.283c0.964,1.514,1.921,3.021,2.856,4.491
					c0.874,1.507,1.748,2.984,2.622,4.4c0.445,0.708,0.882,1.401,1.311,2.08c0.414,0.693,0.814,1.364,1.213,2.027
					c3.308,5.229,6.193,9.441,9.418,11.015c0.844,2.675,2.17,4.182,3.654,5.545c0.738,0.686,1.514,1.326,2.238,2.072
					c0.693,0.753,1.364,1.605,1.929,2.682c0.912,3.127,1.514,4.317,1.951,5.538s0.806,2.456,1.311,5.643
					c-0.181,0.851-0.347,1.68-0.565,2.509c-0.226,0.821-0.467,1.627-0.708,2.426c-0.49,1.59-0.995,3.119-1.514,4.619
					c-0.49,1.499-1.123,2.976-1.71,4.445c-0.58,1.447-1.168,2.908-1.763,4.393c-0.542,1.469-1.243,2.961-1.831,4.483
					c-0.61,1.522-1.19,3.082-1.733,4.694c-0.61,1.62-1.221,3.293-1.771,5.048c-0.279,0.874-0.542,1.778-0.791,2.697
					c-0.279,0.919-0.588,1.861-0.859,2.833c0.015,1.854,0.03,3.669-0.136,5.289c-0.226,1.612-0.58,3.014-1.168,4.031
					c-0.286-2.11-0.362-4.43-0.55-6.939c-0.151-2.509-0.121-5.184-0.286-7.994c-0.053-1.401-0.083-2.841-0.106-4.302
					c-0.083-1.462-0.158-2.938-0.241-4.445c-0.038-0.753-0.075-1.507-0.105-2.268l-0.053-1.145l-0.105-1.145
					c-0.136-1.53-0.279-3.067-0.422-4.604c-1.115-12.319-4.302-24.713-9.117-32.496c-0.113,0.558-0.098,1.1-0.008,1.65
					c0.068,0.55,0.211,1.108,0.392,1.665c0.362,1.115,0.882,2.238,1.236,3.391c0.234,0.791,0.49,1.575,0.708,2.381
					c0.196,0.806,0.399,1.627,0.603,2.449c0.392,1.643,0.829,3.293,1.213,4.98c0.625,3.406,1.424,6.856,1.869,10.458
					c0.136,0.897,0.271,1.793,0.407,2.705c0.068,0.452,0.143,0.904,0.203,1.364l0.136,1.379c0.196,1.838,0.399,3.707,0.595,5.583
					c0.128,1.891,0.256,3.797,0.384,5.726c0.181,1.929,0.188,3.88,0.249,5.854c0.038,1.175,0.106,2.336,0.203,3.496
					c0.06,1.16,0.098,2.321,0.181,3.481c0.075,1.16,0.166,2.328,0.264,3.496c0.128,1.175,0.098,2.343,0.158,3.534
					c0.053,2.366,0.203,4.799-0.023,7.256c-0.083,1.236-0.188,2.479-0.331,3.745c-0.075,0.633-0.128,1.273-0.256,1.906
					c-0.121,0.633-0.256,1.273-0.399,1.914c-0.331,1.499-0.693,2.908-1.062,4.287c-0.166,0.693-0.384,1.364-0.618,2.034
					c-0.218,0.671-0.445,1.341-0.663,2.012c-0.445,1.349-0.874,2.728-1.288,4.197c-0.497,1.447-0.972,2.976-1.424,4.664
					c-0.437,0.128-0.701,1.673-1.243,0.821c-0.113,0.497-0.241,0.979-0.384,1.454c-0.158,0.467-0.347,0.927-0.542,1.379
					c-0.384,0.897-0.821,1.763-1.273,2.607c-0.452,0.844-0.934,1.658-1.409,2.456c-0.467,0.806-1.04,1.56-1.545,2.328
					c-1.025,1.537-1.982,3.051-2.72,4.671c-0.821,1.582-1.439,3.255-1.695,5.169C879.22,778.141,879.815,776.898,878.896,777.719z
					 M823.201,562.33c-0.656-0.445-0.316-0.746,0.234-0.422c0.06-0.316-0.912-0.731-1.56-1.108c0.196-0.181,0.746,0.038,1.296,0.264
					c0.55,0.226,1.077,0.497,1.281,0.316c-0.663-0.912-1.756-1.763-2.908-2.667c1.831,0.392,2.961,1.439,3.232,2.358
					C825.077,561.968,824.572,562.654,823.201,562.33z M787.916,539.794c0.015-1.206,2.253-1.251,4.747-0.897
					c0.625,0.09,1.258,0.203,1.884,0.332c0.61,0.158,1.206,0.324,1.756,0.497c1.1,0.339,2.004,0.678,2.471,0.904
					c1.906,0.919,4.815,3.112,2.411,3.142c-1.326,0.023-3.617-0.964-6.088-2.004c-1.228-0.55-2.539-0.972-3.775-1.341
					C790.094,540.073,788.918,539.817,787.916,539.794z M769.397,538.867c0.105,0.595-0.256,0.904-0.836,1.077
					c-1.658-0.882-4.528-1.341-7.263-1.959c-0.686-0.151-1.356-0.309-2.004-0.467c-0.648-0.136-1.273-0.279-1.846-0.445
					c-1.153-0.331-2.11-0.738-2.712-1.273c3.104,0.407,5.056,0.814,7.082,1.379c1.017,0.264,2.057,0.527,3.27,0.791
					C766.292,538.249,767.686,538.468,769.397,538.867z M749.008,532.727c0.445,0.678-1.334,0.437-1.371,0.919
					c-0.844-0.52-2.833-0.678-3.247-1.341C746.688,532.199,746.921,532.764,749.008,532.727z M746.793,538.475
					c-0.904-0.128-1.816-0.256-2.743-0.392s-1.876-0.271-2.833-0.339c-1.914-0.166-3.88-0.324-5.884-0.46
					c-0.505-0.03-1.002-0.068-1.514-0.083c-0.505,0-1.01,0-1.522-0.008c-1.017,0-2.049,0.015-3.082,0.038s-2.072,0.06-3.112,0.113
					c-1.04,0.045-2.08,0.203-3.127,0.324c-1.793,0.226-3.564,0.573-5.282,0.949c-1.718,0.414-3.383,0.949-5.003,1.409
					c-0.814,0.234-1.612,0.46-2.404,0.663c-0.791,0.196-1.567,0.399-2.328,0.61c-1.522,0.399-3.006,0.693-4.46,0.814
					c5.937-2.931,16.033-4.219,21.24-6.585c1.605-0.023,3.3,0.09,5.003,0.151c1.703,0.09,3.413,0.09,5.071,0.203
					c1.658,0.105,3.262,0.166,4.754,0.136c1.492-0.023,2.871-0.173,4.076-0.339C744.156,536.795,747.147,537.081,746.793,538.475z
					 M742.4,532.229c0,0.241-0.008,0.482-0.008,0.731c-2.75,0.241-7.685,0.678-7.941-0.663
					C737.714,531.732,738.995,531.92,742.4,532.229z M733.758,531.581c-0.512,0.249-0.693,0.588-0.633,1.01
					C730.217,532.9,730.79,531.408,733.758,531.581z M732.914,526.759c-0.897-0.776-3.345,0.09-4.792,0.03
					c-1.401-0.053-2.547-0.324-3.639-0.565c-1.085-0.203-2.125-0.392-3.315-0.339c-2.193,0.098-3.669,0.542-5.297,1.01
					c-1.62,0.527-3.375,1.123-6.156,1.462c-1.733,0.294-0.942,1.055-1.831,1.507c-12.53,3.089-24.148,7.075-35.925,11.852
					c-11.769,4.815-23.704,10.428-36.67,17.744c-0.188-1.349,1.695-3.044,3.27-4.709c0.776-0.851,1.529-1.612,1.884-2.358
					s0.339-1.454-0.377-2.087c1.718-1.16,3.406-2.245,5.063-3.277c1.673-1.01,3.36-1.869,4.995-2.75
					c0.821-0.429,1.635-0.851,2.441-1.273c0.806-0.422,1.605-0.829,2.419-1.183c1.62-0.738,3.202-1.462,4.769-2.177
					c0.784-0.362,1.56-0.723,2.328-1.085c0.776-0.354,1.56-0.663,2.336-1.002c1.552-0.671,3.082-1.356,4.596-2.08
					c1.507-0.753,3.044-1.424,4.573-2.17c1.529-0.746,3.051-1.545,4.573-2.419c2.268-0.799,4.513-1.349,6.706-1.929
					c1.1-0.279,2.2-0.558,3.3-0.806c1.115-0.211,2.23-0.422,3.36-0.633s2.268-0.422,3.436-0.64c1.16-0.226,2.343-0.46,3.571-0.625
					c2.449-0.369,5.018-0.806,7.783-1.319c2.871-0.414,5.734-0.821,8.469-1.13c2.75-0.226,5.387-0.309,7.768-0.264
					c0.595,0.015,1.175,0.038,1.74,0.075c0.565,0.053,1.115,0.128,1.643,0.203c1.055,0.166,2.034,0.369,2.916,0.633
					C730.631,524.996,732.018,525.734,732.914,526.759z M683.865,527.844c-2.2,0.738-2.185-0.121-3.692,0.106
					c-1.115,0.369-2.087,0.656-2.953,0.927c-0.874,0.256-1.665,0.445-2.419,0.603c-1.499,0.309-2.848,0.497-4.385,0.844
					c-0.912,0.241-1.906,0.61-2.961,1.047c-1.062,0.43-2.193,0.919-3.368,1.439c-1.168,0.527-2.388,1.077-3.624,1.635
					c-1.206,0.61-2.426,1.228-3.632,1.838c-4.875,2.328-9.328,4.784-12.1,5.116c4.249-1.658,5.643-5.206,10.367-6.645
					c1.16-1.417,2.411-2.743,3.85-4.016c1.469-1.198,3.134-2.336,5.101-3.443c0.979-0.55,2.034-1.1,3.18-1.643
					c1.16-0.497,2.411-0.979,3.76-1.454c1.349-0.482,2.803-0.957,4.362-1.424c0.776-0.249,1.597-0.46,2.449-0.648
					c0.851-0.196,1.733-0.392,2.637-0.595c1.552-0.339,3.187-0.467,4.807-0.58c1.627-0.113,3.262-0.113,4.799-0.369
					c5.681-0.995,11.279-2.938,14.383-2.193c-0.64,1.846-4.754,3.149-9.215,4.566c-2.223,0.761-4.536,1.514-6.57,2.298
					c-1.017,0.377-1.951,0.806-2.758,1.258C685.07,526.94,684.385,527.392,683.865,527.844z M701.676,542.732
					c-1.273,0.949-2.366,0.723-4.852,1.688C696.756,543.275,700.124,542.989,701.676,542.732z M619.934,588.429
					c-1.484,1.522-2.923,3.059-4.355,4.611l-1.07,1.168l-1.01,1.221c-0.678,0.814-1.349,1.635-2.034,2.456
					c-0.686,0.814-1.379,1.635-2.072,2.464c-0.723,0.806-1.341,1.703-2.042,2.547c-1.364,1.725-2.818,3.428-4.332,5.176
					c-1.341,1.665-2.599,3.089-3.828,4.438c-0.618,0.671-1.228,1.319-1.831,1.974c-0.573,0.678-1.138,1.356-1.718,2.049
					c-1.153,1.386-2.336,2.856-3.594,4.558c-1.198,1.733-2.404,3.752-3.745,6.141c-0.384,0.701-0.708,1.364-0.964,2.042
					c-0.249,0.686-0.467,1.379-0.701,2.125c-0.475,1.484-1.025,3.157-2.042,5.372c-1.062,2.516-2.298,4.89-3.345,7.135
					c-0.542,1.115-0.904,2.253-1.19,3.345c-0.279,1.093-0.43,2.162-0.399,3.21c-1.386,2.712-2.554,5.47-3.571,8.16
					c-1.055,2.675-1.552,5.402-1.597,8.017c-0.701-1.01-0.957-3.436-1.01-6.291c0.06-2.81,0.324-6.043,0.452-8.65
					c5.071-12.937,11.166-25.278,18.716-36.256c7.527-10.963,16.516-20.539,26.785-27.524L619.934,588.429z M569.039,700.663
					c0.332,0.158-0.083,1.861,0.347,1.899c-0.271,1.582-0.414,3.097-0.475,4.543c-0.03,0.723-0.045,1.439-0.038,2.132
					c-0.008,0.693,0.023,1.379,0.098,2.049c0.241,2.675,0.573,5.139,0.693,7.512c0.196,2.253-0.384,4.573-0.301,7.527
					c0.113,1.966,0.686,4.189,0.995,6.141c0.166,0.972,0.241,1.884,0.234,2.652c0,0.769-0.143,1.409-0.512,1.861
					c0.399,0.866,0.686,1.944,0.919,3.127c0.113,0.595,0.219,1.213,0.316,1.846c0.09,0.633,0.188,1.288,0.324,1.929
					c0.497,2.592,1.002,5.237,1.974,7.09c-1.213,0.106-3.398-5.839-3.82-1.74c0.829,1.552,1.891,1.288,2.795,2.615
					c1.025,3.797,1.221,6.427,0.053,7.158c-0.746-1.175-1.567-3.014-2.396-5.229c-0.203-0.558-0.407-1.13-0.625-1.725
					c-0.203-0.595-0.362-1.221-0.535-1.854c-0.347-1.266-0.678-2.592-0.995-3.933c-0.686-2.675-1.025-5.47-1.334-7.994
					c-0.128-1.266-0.286-2.471-0.301-3.586c-0.023-1.115-0.008-2.125,0.045-3.006c-1.379-4.611-0.829-8.552-0.731-13.381
					c-0.535-0.286-0.437,0.927-0.392,1.929c-0.407-1.469-0.362-2.984-0.188-4.506c0.173-1.522,0.52-3.059,0.882-4.596
					c0.354-1.537,0.874-3.074,1.183-4.619c0.339-1.545,0.535-3.097,0.49-4.671C567.954,700.761,568.858,701.959,569.039,700.663z
					 M574.313,760.502c0.249,1.296,0.106,2.102,0.226,3.232c-0.753-0.06-1.447-0.957-2.095-2.697
					C572.414,759.199,573.371,759.824,574.313,760.502z M596.02,786.037c3.918,7.557,9.019,14.64,14.037,21.036
					c0.919,1.138,1.846,2.328,2.788,3.571c0.942,1.243,2.012,2.434,3.029,3.699c0.512,0.633,1.032,1.266,1.552,1.906
					c0.52,0.64,1.04,1.296,1.612,1.899c1.123,1.243,2.253,2.494,3.383,3.745c1.108,1.273,2.328,2.449,3.534,3.609
					c1.206,1.168,2.404,2.313,3.602,3.421c1.258,1.047,2.509,2.057,3.752,3.021c1.251,0.942,2.426,1.914,3.707,2.667
					c0.761,0.791,1.778,1.816,2.938,2.908c0.58,0.55,1.198,1.115,1.831,1.68c0.64,0.565,1.341,1.07,2.027,1.59
					c1.379,1.025,2.773,1.974,4.046,2.697c1.258,0.753,2.494,1.145,3.421,1.258c0.897,0.655,1.808,1.288,2.727,1.899
					c0.927,0.595,1.831,1.236,2.81,1.725c1.936,1.032,3.888,1.989,5.824,2.901c1.959,0.867,3.963,1.582,5.892,2.351
					c1.914,0.799,3.873,1.401,5.741,2.08c1.183,0.64,2.396,1.266,3.639,1.846c1.266,0.527,2.562,1.04,3.873,1.537
					c1.319,0.482,2.622,1.032,3.993,1.439c1.364,0.414,2.743,0.836,4.121,1.258c0.693,0.219,1.379,0.43,2.08,0.648
					c0.693,0.226,1.409,0.377,2.11,0.573c1.416,0.377,2.825,0.776,4.242,1.198c1.401,0.46,2.848,0.791,4.28,1.213
					c1.432,0.414,2.856,0.874,4.28,1.379c2.592,0.784,4.385,2.23,7.082,3.051c2.366,0.61,5.349,0.701,8.054,1.349
					c1.959,0.369,3.873,0.942,5.786,1.507l1.439,0.422c0.482,0.128,0.964,0.226,1.447,0.324c0.964,0.203,1.929,0.377,2.901,0.497
					c0.889,0.113,1.929,0.106,2.969,0.106c1.032,0,2.064-0.09,2.938,0.008c1.16,0.113,1.899,0.776,2.969,0.949
					c0.829,0.128,1.703,0.211,2.592,0.234c0.889-0.015,1.793-0.03,2.682-0.045c1.771-0.03,3.481-0.023,4.897,0.324
					c2.434-0.422,4.799-0.784,7.173-1.108c2.366-0.377,4.717-0.836,7.135-1.236c1.213-0.181,2.419-0.482,3.654-0.753
					c1.236-0.279,2.486-0.558,3.775-0.851c1.288-0.264,2.577-0.663,3.91-1.047c1.326-0.392,2.69-0.799,4.091-1.221
					c-2.373,1.266-4.882,2.599-6.954,3.888c-2.08,1.243-3.692,2.599-4.204,4.159c-0.746,0.166-1.484,0.324-2.215,0.482
					c-0.738,0.128-1.477,0.256-2.208,0.384c-1.469,0.256-2.916,0.512-4.37,0.768c-1.447,0.279-2.916,0.392-4.385,0.535
					c-1.469,0.128-2.954,0.226-4.453,0.286c-2.162,0.023-3.624-0.113-5.417-0.113c-0.897-0.008-1.876,0.015-3.082,0.068
					c-1.198,0.008-2.614,0.03-4.385,0.098c-0.799,0.03-1.582,0.098-2.366,0.173c-0.776,0.083-1.552,0.173-2.313,0.211
					c-1.529,0.106-3.036,0.203-4.528,0.173c-7.979-0.264-16.041-2.004-23.636-3.564c-0.814-0.151-1.635-0.286-2.449-0.414
					c-0.814-0.128-1.62-0.316-2.426-0.46c-1.605-0.309-3.187-0.61-4.724-0.904c-1.545-0.279-2.984-0.761-4.355-1.221
					c-1.364-0.482-2.637-1.025-3.775-1.673c-2.584-0.64-5.244-1.605-7.956-2.547c-2.682-1.04-5.349-2.253-8.024-3.33
					c-2.615-1.221-5.191-2.388-7.723-3.353c-2.464-1.092-4.867-1.989-7.195-2.554c-1.56-1.1-3.142-2.215-4.807-3.18
					c-0.829-0.49-1.665-0.957-2.509-1.409c-0.851-0.437-1.65-0.964-2.479-1.416c-1.658-0.927-3.278-1.831-4.845-2.712
					c-1.567-0.881-2.984-1.876-4.317-2.81c-0.874-1.379-1.876-2.788-2.931-4.332c-1.04-1.567-2.2-3.187-3.526-4.807
					c-1.364-1.582-2.743-3.345-4.385-5.041c-0.821-0.851-1.695-1.695-2.63-2.532c-0.912-0.866-1.846-1.763-2.871-2.63
					c-0.829-0.708-1.65-1.334-2.471-1.906c-0.414-0.286-0.821-0.558-1.236-0.821c-0.399-0.271-0.799-0.535-1.183-0.791
					c-1.567-1.01-3.134-1.854-4.679-2.652c-0.769-0.407-1.567-0.768-2.291-1.19c-0.731-0.422-1.462-0.844-2.177-1.281
					c-1.439-0.882-2.841-1.846-4.182-2.999c-0.791-1.786-1.801-3.067-2.961-4.28c-0.573-0.61-1.175-1.213-1.786-1.876
					c-0.301-0.331-0.61-0.671-0.897-1.04c-0.279-0.377-0.55-0.776-0.821-1.213c-0.806-1.296-1.56-2.69-2.321-4.144
					c-0.369-0.738-0.791-1.462-1.138-2.253c-0.362-0.784-0.731-1.575-1.115-2.396c-0.761-1.627-1.643-3.277-2.584-5.018
					c-0.897-1.756-1.929-3.556-3.164-5.387c2.81-0.083,4.491-0.964,7.03-0.241C596.284,788.968,595.018,786.549,596.02,786.037z
					 M786.379,868.148c0.023-0.603,0.633-1.145,0.075-1.801c0.806-0.008,1.605-0.158,2.388-0.414
					c0.784-0.249,1.545-0.595,2.26-1.047c1.432-0.867,2.735-1.899,3.85-2.667c2.042-0.746,3.865-1.695,5.636-2.577
					c1.771-0.889,3.473-1.748,5.101-2.758c1.643-0.957,3.277-1.921,4.973-2.908c1.65-1.055,3.36-2.11,5.199-3.172
					c1.74-0.535,2.999-0.753,4.611-1.266c1.281-0.746,2.577-1.477,3.865-2.2c1.258-0.784,2.509-1.56,3.752-2.328
					c0.625-0.384,1.243-0.768,1.861-1.145c0.618-0.377,1.236-0.753,1.816-1.175c1.175-0.829,2.336-1.643,3.481-2.449
					c0.618-0.437,1.228-0.889,1.838-1.349s1.175-0.979,1.756-1.477c1.145-1.017,2.298-2.034,3.436-3.051
					c1.16-0.987,2.193-2.102,3.262-3.127c1.062-1.04,2.125-2.042,3.18-2.984c1.153-1.077,2.328-2.14,3.556-3.134
					c0.618-0.497,1.228-1.002,1.831-1.492c0.61-0.49,1.221-0.979,1.771-1.522c1.123-1.055,2.185-2.125,3.119-3.24
					c0.934-1.123,1.748-2.275,2.245-3.602c2.11-2.343,4.913-4.935,7.248-7.768c0.603-0.693,1.19-1.386,1.763-2.08
					c0.573-0.686,1.13-1.364,1.582-2.072c0.942-1.394,1.748-2.743,2.321-3.986c2.072-1.808,3.956-4.837,6.058-7.987
					c1.017-1.59,1.936-3.3,2.954-4.92c1.025-1.62,2.027-3.217,2.969-4.701c0.603-1.597,1.138-3.134,1.635-4.626
					c0.482-1.499,0.806-2.991,1.168-4.43c0.347-1.447,0.701-2.841,1.01-4.242c0.264-1.417,0.535-2.81,0.829-4.204
					c0.151-0.693,0.309-1.394,0.467-2.095c0.173-0.693,0.339-1.401,0.475-2.117c0.294-1.432,0.64-2.886,1.055-4.37
					c0.203-0.746,0.437-1.499,0.678-2.268c0.203-0.776,0.429-1.567,0.671-2.373c0.49-1.612,1.085-3.278,1.763-5.041
					c0.068,1.341-0.09,2.825-0.316,4.355c-0.113,0.769-0.249,1.545-0.392,2.321l-0.218,1.168c-0.09,0.384-0.188,0.769-0.279,1.145
					c-0.369,1.522-0.716,3.006-0.927,4.378c-0.203,1.371-0.279,2.63-0.188,3.677c-0.558,1.311-0.972,2.63-1.296,3.948
					c-0.324,1.311-0.542,2.63-0.821,3.865c-0.512,2.494-0.806,4.867-1.303,6.826c-1.01,3.293-2.727,7.331-4.054,10.729
					c-0.377,1.055-0.678,2.012-0.964,2.961c-0.279,0.949-0.558,1.884-0.949,2.841c-0.377,0.972-0.806,2.004-1.364,3.18
					c-0.279,0.588-0.588,1.213-0.934,1.876c-0.354,0.663-0.716,1.386-1.213,2.117c-0.769,1.168-1.514,2.306-2.283,3.473
					c-0.384,0.58-0.776,1.175-1.183,1.786c-0.399,0.61-0.799,1.243-1.266,1.861c-3.722,5.327-9.267,10.134-12.65,14.037
					c-0.919,1.07-1.522,2.479-2.479,3.488c-1.1,1.221-2.652,2.253-4.159,3.383c-0.761,0.558-1.522,1.123-2.253,1.71
					s-1.432,1.198-2.125,1.786c-0.414,0.362-1.447,2.012-1.906,2.381c-0.701,0.565-1.522,1.04-2.336,1.499
					c-0.407,0.234-0.806,0.46-1.206,0.693c-0.407,0.219-0.799,0.437-1.153,0.678c-1.213,0.806-2.456,1.673-3.722,2.584
					c-0.625,0.46-1.266,0.934-1.914,1.409c-0.671,0.452-1.341,0.912-2.027,1.371c-1.364,0.934-2.75,1.906-4.152,2.908
					c-1.424,0.972-2.916,1.891-4.393,2.878c-0.738,0.49-1.484,0.979-2.238,1.477c-0.738,0.505-1.537,0.927-2.313,1.394
					c-1.552,0.919-3.119,1.846-4.679,2.773c-1.59,0.882-3.217,1.695-4.815,2.532c-0.799,0.414-1.605,0.829-2.396,1.236
					c-0.806,0.384-1.635,0.731-2.441,1.093c-2.652,1.153-5.199,1.884-7.813,2.984c-0.874,0.392-1.748,0.897-2.63,1.401
					c-0.889,0.497-1.778,1.01-2.72,1.288c-1.884,0.603-3.737,0.821-5.56,1.145c-0.904,0.181-1.823,0.324-2.743,0.542
					C788.21,867.38,787.299,867.688,786.379,868.148z M881.164,776.272c0.671-1.401,0.105-1.206,0.957-2.064
					C883.168,774.17,881.827,777.063,881.164,776.272z"/>
				<path style="fill-rule:evenodd;clip-rule:evenodd;fill:#2B2B2B;" d="M548.417,662.32c0.279-1.484,0.151-2.388,0.301-3.684
					c0.422-0.753,0.761-1.771,1.07-2.908c0.316-1.138,0.542-2.411,0.904-3.624c0.671-2.434,1.394-4.777,2.479-5.786
					c-0.769,2.441-1.499,4.732-2.2,6.947c-0.618,2.238-1.213,4.385-1.808,6.517c-0.294,1.062-0.61,2.117-0.882,3.187
					c-0.256,1.07-0.512,2.147-0.769,3.232c-0.505,2.177-1.092,4.378-1.575,6.713c-0.362-0.874,0.188-3.511,0.799-5.952
					C547.369,664.528,548.123,662.313,548.417,662.32z"/>
				<path style="fill-rule:evenodd;clip-rule:evenodd;fill:#2B2B2B;" d="M543.888,679.921c0.535-2.547-0.234-2.75,0.211-5.146
					c0.618,1.108,0.053,4.347,0.746,5.304C544.454,681.917,544.619,679.039,543.888,679.921z"/>
				<path style="fill-rule:evenodd;clip-rule:evenodd;fill:#2B2B2B;" d="M922.068,767.879c-0.06-0.912,0.083-2.102,0.347-3.458
					c0.241-1.356,0.678-2.856,0.964-4.43c0.625-3.127,1.386-6.367,1.401-8.642c0.226,2.343-0.309,5.154-0.882,8.054
					c-0.151,0.723-0.286,1.454-0.46,2.177c-0.181,0.723-0.362,1.439-0.535,2.147C922.566,765.151,922.264,766.553,922.068,767.879z"
					/>
			</g>
		</g>
	</g>
</svg>